<?xml version="1.0" encoding="UTF-8"?>
<svg width="32px" height="120px" viewBox="0 0 32 120" version="1.1" xmlns="http://www.w3.org/2000/svg" xmlns:xlink="http://www.w3.org/1999/xlink">
    <title>feedback_right</title>
    <defs>
        <path d="M0,0 L28,0 C30.209139,-4.05812251e-16 32,1.790861 32,4 L32,116 C32,118.209139 30.209139,120 28,120 L0,120 L0,0 Z" id="path-1"></path>
    </defs>
    <g id="Page-1" stroke="none" stroke-width="1" fill="none" fill-rule="evenodd">
        <g id="feedback-flag-copy">
            <g id="Rectangle-2" transform="translate(16.000000, 60.000000) scale(-1, 1) translate(-16.000000, -60.000000) ">
                <use fill="#EE3224" fill-rule="evenodd" xlink:href="#path-1"></use>
                <path stroke="#FFFFFF" stroke-width="1" d="M0.5,0.5 L0.5,119.5 L28,119.5 C29.9329966,119.5 31.5,117.932997 31.5,116 L31.5,4 C31.5,2.06700338 29.9329966,0.5 28,0.5 L0.5,0.5 Z"></path>
            </g>
            <text id="Feedback" fill="#FFFFFF" transform="translate(16.000001, 81.000000) scale(-1, -1) rotate(90.000003) translate(-16.000001, -81.000000) " font-family="KievitOT-Bold, KievitOT" font-size="13" font-weight="bold" line-spacing="18" letter-spacing="0.200000003">
                <tspan x="-11.9999985" y="84.0000002">Feedbac</tspan>
                <tspan x="36.3170016" y="84.0000002">k</tspan>
            </text>
            <rect id="Rectangle-path" fill="#FFFFFF" fill-rule="nonzero" x="4" y="42" width="24" height="1.123"></rect>
            <g id="Group-Copy" transform="translate(4.000000, 11.000000)">
                <path d="M19.9733333,0.0177777778 C19.9733333,0.0177777778 22.7511111,0.712 23.4737778,5.24 L23.4737778,11.768 C23.4737778,11.768 22.8906667,17.1297778 20.3075556,18.296 C20.3075556,18.296 18.8906667,19.1031111 17.3075556,18.0462222 C17.3075556,18.0462222 14.0293333,14.1031111 12.1128889,13.5742222 C12.1128889,13.5742222 10.8613333,12.936 9.94577778,13.1857778 C9.94577778,13.1857778 10.5848889,14.6577778 9.94577778,15.9075556 C9.94577778,15.9075556 11.5857778,18.768 8.30666667,20.1297778 C8.30666667,20.1297778 5.112,20.2684444 5.02755556,18.0737778 C5.02755556,18.0737778 4.91911111,16.3244444 5.91733333,15.7964444 C5.91733333,15.7964444 6.50133333,13.6586667 5.30577778,13.0737778 L3.61155556,13.0737778 C3.61155556,13.0737778 0.444444444,12.4924444 0.361777778,9.60266667 C0.361777778,9.60266667 0.388444444,6.79644444 3.30577778,5.90755556 C3.30577778,5.90755556 8.472,5.60177778 10.1395556,5.35288889 C10.1395556,5.35288889 14.0275556,4.74222222 15.2782222,3.37955556 C15.2782222,3.37955556 17.3884444,1.15911111 17.7226667,0.991111111 C17.7235556,0.990222222 18.6666667,-0.120888889 19.9733333,0.0177777778 Z" id="Shape" stroke="#FFFFFF" stroke-width="0.9695"></path>
                <path d="M20.6951111,0.583111111 C20.6951111,0.583111111 17.288,1.39733333 16.9173333,7.13777778 L16.9173333,12.3973333 C16.9173333,12.3973333 17.1608889,17.4684444 21.7555556,16.9857778" id="Shape" stroke="#FFFFFF" stroke-width="0.6463"></path>
                <path d="M16.0275556,2.91644444 C16.0275556,2.91644444 14.6951111,5.76711111 14.7697778,9.39733333 C14.7697778,9.39733333 14.4711111,15.3617778 16.3244444,16.6195556" id="Shape" stroke="#FFFFFF" stroke-width="0.2424"></path>
                <path d="M16.9351111,6.90933333 L21.1386667,8.50844444 C21.1386667,8.50844444 21.3982222,8.64711111 21.4346667,8.79822222 L21.4346667,10.3608889 C21.4346667,10.3608889 21.3991111,11.0275556 21.1768889,11.1013333 L16.9351111,12.5955556 L16.9173333,7.13777778 L16.9173333,6.73066667" id="Shape" fill="#FFFFFF" fill-rule="nonzero"></path>
                <path d="M3.57511111,5.89155556 C3.57511111,5.89155556 1.41777778,9.48977778 3.61155556,13.0728889" id="Shape" stroke="#FFFFFF" stroke-width="0.3232"></path>
            </g>
        </g>
    </g>
</svg>