<?xml version="1.0" encoding="UTF-8"?>
<svg width="20px" height="16px" viewBox="0 0 20 16" version="1.1" xmlns="http://www.w3.org/2000/svg" xmlns:xlink="http://www.w3.org/1999/xlink">
    <g id="Page-1" stroke="none" stroke-width="1" fill="none" fill-rule="evenodd">
        <g id="Primary" transform="translate(-216.000000, -82.000000)" fill-rule="nonzero" fill="#222222">
            <path d="M234,84 C235.031,84 236,84.877 236,86.062 L236,96 C236,97.083 235.031,98 233.985,98 L218,98 C216.983,98 216,97.104 216,96 L216,86.041 C216,84.958 217,84 217.985,84 L222,84 L222,82 L230,82 L230,84 L234,84 Z M226,96.026 C228.761,96.026 231,93.787 231,91.026 C231,88.265 228.761,86.026 226,86.026 C223.238,86.026 221,88.265 221,91.026 C221,93.787 223.238,96.026 226,96.026 Z M226,94.026 C224.343146,94.026 223,92.6828542 223,91.026 C223,89.3691458 224.343146,88.026 226,88.026 C227.656854,88.026 229,89.3691458 229,91.026 C229,92.6828542 227.656854,94.026 226,94.026 Z" id="image"></path>
        </g>
    </g>
</svg>