<?xml version="1.0" encoding="UTF-8"?>
<svg width="24px" height="30px" viewBox="0 0 24 30" version="1.1" xmlns="http://www.w3.org/2000/svg" xmlns:xlink="http://www.w3.org/1999/xlink">
    <!-- Generator: Sketch 51.3 (57544) - http://www.bohemiancoding.com/sketch -->
    <title>project-default</title>
    <desc>Created with Sketch.</desc>
    <defs></defs>
    <g id="003" stroke="none" stroke-width="1" fill="none" fill-rule="evenodd">
        <g id="302" transform="translate(-519.000000, -633.000000)" fill="#222222" fill-rule="nonzero">
            <g id="Group-16" transform="translate(-947.000000, -1.000000)">
                <g id="project-resources" transform="translate(947.000000, 514.000000)">
                    <g id="Group-7" transform="translate(143.000000, 0.000000)">
                        <g id="Group-6" transform="translate(282.000000, 100.000000)">
                            <g id="Group-4" transform="translate(71.000000, 0.000000)">
                                <path d="M47,38.0161775 L41.8715,38.0161775 L38.7935,31.440056 C39.245,30.7524845 39.5,29.9121185 39.5,29.0298095 C39.5,26.7873365 37.8605,24.949319 35.714,24.6077795 L35.714,22.995956 L36.488,22.995956 L36.488,20 L33.488,20 L33.488,22.995956 L34.2845,22.995956 L34.2845,24.6077795 C32.138,24.950816 30.5,26.788835 30.5,29.0298095 C30.5,29.928596 30.77,30.7674635 31.22,31.471514 L28.166,38.0161775 L23,38.0161775 L23,39.5141555 L27.467,39.5141555 L25.37,44.0080895 L24.5,44.0080895 L24.5,50 L27.5,50 L27.5,46.526189 L30.779,39.5141555 L33.5,39.5141555 L33.5,41.0121335 L36.5,41.0121335 L36.5,39.5141555 L39.2435,39.5141555 L42.5,46.4947325 L42.5,50 L45.5,50 L45.5,44.0080895 L44.675,44.0080895 L42.5735,39.5141555 L47,39.5141555 L47,38.0161775 Z M36.5,38.0161775 L36.5,36.518201 L33.5,36.518201 L33.5,38.0161775 L31.4795,38.0161775 L33.68,33.3125285 L34.325,31.950866 C33.365,31.726169 32.585,31.0371005 32.225,30.153293 C32.075,29.808758 32,29.4192845 32,29.0298095 C32,27.382034 33.35,26.033855 35,26.033855 C36.65,26.033855 38,27.382034 38,29.0298095 C38,29.4192845 37.925,29.808758 37.775,30.153293 C37.4165,31.0371005 36.65,31.71119 35.708,31.9343885 L36.353,33.3125285 L38.5475,38.0161775 L36.5,38.0161775 Z" id="project-default"></path>
                            </g>
                        </g>
                    </g>
                </g>
            </g>
        </g>
    </g>
</svg>