<?xml version="1.0" encoding="UTF-8"?>
<svg width="16px" height="20px" viewBox="0 0 16 20" version="1.1" xmlns="http://www.w3.org/2000/svg" xmlns:xlink="http://www.w3.org/1999/xlink">
    <g id="Page-1" stroke="none" stroke-width="1" fill="none" fill-rule="evenodd">
        <g id="Primary" transform="translate(-218.000000, -148.000000)" fill-rule="nonzero" fill="#E2E2E2">
            <path d="M234,160.010785 L230.581,160.010785 L228.529,155.626704 C228.83,155.168323 229,154.608079 229,154.019873 C229,152.524891 227.907,151.299546 226.476,151.071853 L226.476,149.997304 L226.992,149.997304 L226.992,148 L224.992,148 L224.992,149.997304 L225.523,149.997304 L225.523,151.071853 C224.092,151.300544 223,152.52589 223,154.019873 C223,154.619064 223.18,155.178309 223.48,155.647676 L221.444,160.010785 L218,160.010785 L218,161.009437 L220.978,161.009437 L219.58,164.005393 L219,164.005393 L219,168 L221,168 L221,165.684126 L223.186,161.009437 L225,161.009437 L225,162.008089 L227,162.008089 L227,161.009437 L228.829,161.009437 L231,165.663155 L231,168 L233,168 L233,164.005393 L232.45,164.005393 L231.049,161.009437 L234,161.009437 L234,160.010785 L234,160.010785 Z M227,160.010785 L227,159.012134 L225,159.012134 L225,160.010785 L223.653,160.010785 L225.12,156.875019 L225.55,155.967244 C224.91,155.817446 224.39,155.358067 224.15,154.768862 C224.05,154.539172 224,154.279523 224,154.019873 C224,152.921356 224.9,152.02257 226,152.02257 C227.1,152.02257 228,152.921356 228,154.019873 C228,154.279523 227.95,154.539172 227.85,154.768862 C227.611,155.358067 227.1,155.80746 226.472,155.956259 L226.902,156.875019 L228.365,160.010785 L227,160.010785 Z" id="project-default"></path>
        </g>
    </g>
</svg>