<?xml version="1.0" encoding="UTF-8"?>
<svg width="19px" height="28px" viewBox="0 0 19 28" version="1.1" xmlns="http://www.w3.org/2000/svg" xmlns:xlink="http://www.w3.org/1999/xlink">
    <!-- Generator: Sketch 51.3 (57544) - http://www.bohemiancoding.com/sketch -->
    <title>report</title>
    <desc>Created with Sketch.</desc>
    <defs></defs>
    <g id="003" stroke="none" stroke-width="1" fill="none" fill-rule="evenodd">
        <g id="302" transform="translate(-563.000000, -2039.000000)" fill="#222222" fill-rule="nonzero">
            <g id="Group-16" transform="translate(-947.000000, -1.000000)">
                <g id="reporting" transform="translate(947.000000, 1919.000000)">
                    <g id="Group-6" transform="translate(425.000000, 100.000000)">
                        <g id="Group-4" transform="translate(112.000000, 0.000000)">
                            <path d="M35.3333333,21 L44.6666667,21 L44.6666667,49 L26,49 L26,30.3333333 L35.3333333,30.3333333 L35.3333333,21 Z M33.7777778,21 L33.7777778,28.7777778 L26,28.7777778 L33.7777778,21 Z M29.1111111,44.3333333 L29.1111111,45.8888889 L41.5555556,45.8888889 L41.5555556,44.3333333 L29.1111111,44.3333333 Z M38.4444444,30.3333333 L38.4444444,42.7777778 L41.5555556,42.7777778 L41.5555556,30.3333333 L38.4444444,30.3333333 Z M33.7777778,33.4444444 L33.7777778,42.7777778 L36.8888889,42.7777778 L36.8888889,33.4444444 L33.7777778,33.4444444 Z M29.1111111,36.5555556 L29.1111111,42.7777778 L32.2222222,42.7777778 L32.2222222,36.5555556 L29.1111111,36.5555556 Z" id="report"></path>
                        </g>
                    </g>
                </g>
            </g>
        </g>
    </g>
</svg>