<?xml version="1.0" encoding="UTF-8"?>
<svg width="16px" height="16px" viewBox="0 0 16 16" version="1.1" xmlns="http://www.w3.org/2000/svg" xmlns:xlink="http://www.w3.org/1999/xlink">
    <g id="Page-1" stroke="none" stroke-width="1" fill="none" fill-rule="evenodd">
        <g id="Primary" transform="translate(-320.000000, -150.000000)" fill-rule="nonzero" fill="#222222">
            <path d="M330.390484,151.292484 C327.514484,149.144484 323.440484,149.734484 321.292484,152.611484 C319.144484,155.488484 319.734484,159.561484 322.611484,161.710484 C324.953484,163.458484 328.087484,163.392484 330.331484,161.755484 L334.594484,166.016484 L336.015484,164.610484 L331.745484,160.339484 C333.848484,157.464484 333.249484,153.427484 330.390484,151.292484 Z M330.105484,159.193484 C328.619484,161.184484 325.799484,161.594484 323.808484,160.107484 C321.816484,158.620484 321.409484,155.800484 322.895484,153.809484 C324.383484,151.818484 327.202484,151.409484 329.194484,152.896484 C331.185484,154.382484 331.595484,157.201484 330.105484,159.193484 Z" id="search"></path>
        </g>
    </g>
</svg>