<?xml version="1.0" encoding="UTF-8"?>
<svg width="16px" height="16px" viewBox="0 0 16 16" version="1.1" xmlns="http://www.w3.org/2000/svg" xmlns:xlink="http://www.w3.org/1999/xlink">
    <g id="Page-1" stroke="none" stroke-width="1" fill="none" fill-rule="evenodd">
        <g id="Primary" transform="translate(-150.000000, -184.000000)" fill-rule="nonzero" fill="#222222">
            <path d="M156,184 L166,184 L166,188 L156,188 L156,184 Z M156,190 L166,190 L166,194 L156,194 L156,190 Z M156,196 L166,196 L166,200 L156,200 L156,196 Z M150,184 L154,184 L154,188 L150,188 L150,184 Z M150,190 L154,190 L154,194 L150,194 L150,190 Z M150,196 L154,196 L154,200 L150,200 L150,196 Z" id="view-list"></path>
        </g>
    </g>
</svg>